<svg width="37" height="37" viewBox="0 0 37 37" fill="none" xmlns="http://www.w3.org/2000/svg">
<circle cx="18" cy="19" r="11" fill="white"/>
<path d="M16.3416 21.275L12.9885 17.9219C12.7058 17.6393 12.3589 17.498 11.9478 17.498C11.5367 17.498 11.177 17.6521 10.8687 17.9605C10.586 18.2431 10.4447 18.6028 10.4447 19.0396C10.4447 19.4764 10.586 19.8362 10.8687 20.1188L15.2624 24.5125C15.5451 24.7952 15.9048 24.9365 16.3416 24.9365C16.7784 24.9365 17.1381 24.7952 17.4208 24.5125L26.1697 15.7636C26.4524 15.4809 26.5937 15.1341 26.5937 14.723C26.5937 14.3118 26.4395 13.9521 26.1312 13.6438C25.8485 13.3612 25.4888 13.2198 25.052 13.2198C24.6152 13.2198 24.2555 13.3612 23.9728 13.6438L16.3416 21.275ZM18.4999 33.9167C16.3673 33.9167 14.3631 33.5118 12.4874 32.7019C10.6117 31.893 8.98013 30.7948 7.59263 29.4073C6.20513 28.0198 5.10695 26.3882 4.29809 24.5125C3.4882 22.6368 3.08325 20.6327 3.08325 18.5C3.08325 16.3674 3.4882 14.3632 4.29809 12.4875C5.10695 10.6118 6.20513 8.98025 7.59263 7.59275C8.98013 6.20525 10.6117 5.10655 12.4874 4.29667C14.3631 3.4878 16.3673 3.08337 18.4999 3.08337C20.6326 3.08337 22.6367 3.4878 24.5124 4.29667C26.3881 5.10655 28.0197 6.20525 29.4072 7.59275C30.7947 8.98025 31.8929 10.6118 32.7018 12.4875C33.5116 14.3632 33.9166 16.3674 33.9166 18.5C33.9166 20.6327 33.5116 22.6368 32.7018 24.5125C31.8929 26.3882 30.7947 28.0198 29.4072 29.4073C28.0197 30.7948 26.3881 31.893 24.5124 32.7019C22.6367 33.5118 20.6326 33.9167 18.4999 33.9167Z" fill="#389897"/>
</svg>
