<svg width="48" height="48" viewBox="0 0 48 48" fill="none" xmlns="http://www.w3.org/2000/svg">
<mask id="mask0_1201_12" style="mask-type:alpha" maskUnits="userSpaceOnUse" x="4" y="2" width="40" height="45">
<path d="M6 9.256L24.009 4L42 9.256V20.034C41.9999 25.5577 40.2617 30.9413 37.0316 35.4222C33.8016 39.903 29.2434 43.2539 24.003 45C18.761 43.2541 14.2013 39.9028 10.9701 35.421C7.73891 30.9392 6.00008 25.5541 6 20.029V9.256Z" fill="white" stroke="white" stroke-width="4" stroke-linejoin="round"/>
<path d="M15 23L22 30L34 18" stroke="black" stroke-width="4" stroke-linecap="round" stroke-linejoin="round"/>
</mask>
<g mask="url(#mask0_1201_12)">
<path d="M0 0H48V48H0V0Z" fill="#21174B"/>
</g>
<path d="M20.3744 27.6822L32.5448 14.6093C32.923 14.2031 33.4043 14 33.9888 14C34.5732 14 35.0546 14.2031 35.4327 14.6093C35.8109 15.0155 36 15.5326 36 16.1603C36 16.7881 35.8109 17.3052 35.4327 17.7114L21.8184 32.3353C21.4058 32.7784 20.9245 33 20.3744 33C19.8244 33 19.343 32.7784 18.9305 32.3353L13.5673 26.5743C13.1891 26.1681 13 25.6511 13 25.0233C13 24.3955 13.1891 23.8785 13.5673 23.4723C13.9454 23.0661 14.4268 22.863 15.0112 22.863C15.5957 22.863 16.077 23.0661 16.4552 23.4723L20.3744 27.6822Z" fill="#F9D460"/>
</svg>
