<svg width="24" height="24" viewBox="0 0 24 24" fill="none" xmlns="http://www.w3.org/2000/svg">
<path d="M1 23H5V11H1V23Z" fill="#F9D460"/>
<path d="M23 13C23 12.4696 22.7893 11.9609 22.4142 11.5858C22.0391 11.2107 21.5304 11 21 11H14.68L15.64 6.43C15.66 6.33 15.67 6.22 15.67 6.11C15.67 5.7 15.5 5.32 15.23 5.05L14.17 4L7.59 10.58C7.22 10.95 7 11.45 7 12V22C7 22.5304 7.21071 23.0391 7.58579 23.4142C7.96086 23.7893 8.46957 24 9 24H18C18.83 24 19.54 23.5 19.84 22.78L22.86 15.73C22.95 15.5 23 15.26 23 15V13Z" fill="#21174B"/>
</svg>
