<svg width="24" height="24" viewBox="0 0 24 24" fill="none" xmlns="http://www.w3.org/2000/svg">
<g clip-path="url(#clip0_1201_25)">
<path d="M11.9 22L16.45 10H18.55L23.1 22H21L19.95 18.95H15.1L14 22H11.9ZM15.7 17.2H19.3L17.55 12.25H17.45L15.7 17.2Z" fill="#21174B"/>
<path d="M4.00005 18L2.60005 16.6L7.65005 11.55C7.01672 10.85 6.46272 10.125 5.98805 9.37505C5.51272 8.62505 5.10005 7.83338 4.75005 7.00005H6.85005C7.15005 7.60005 7.47105 8.14172 7.81305 8.62505C8.15438 9.10838 8.56672 9.61672 9.05005 10.15C9.78338 9.35005 10.3917 8.52938 10.875 7.68805C11.3584 6.84605 11.7667 5.95005 12.1 5.00005H1.00005V3.00005H8.00005V1.00005H10V3.00005H17V5.00005H14.1C13.75 6.18338 13.275 7.33338 12.675 8.45005C12.075 9.56672 11.3334 10.6167 10.45 11.6L12.85 14.05L12.1 16.1L9.00005 13L4.00005 18Z" fill="#F9D460"/>
</g>
<defs>
<clipPath id="clip0_1201_25">
<rect width="24" height="24" fill="white"/>
</clipPath>
</defs>
</svg>
